<svg id="svg" version="1.1" xmlns="http://www.w3.org/2000/svg" xmlns:xlink="http://www.w3.org/1999/xlink" width="400" height="91.06628242074927" viewBox="0, 0, 400,91.06628242074927"><g id="svgg"><path id="path0" d="M4.582 6.415 C 3.964 8.041,3.458 9.857,3.458 10.450 C 3.458 11.081,12.763 11.527,25.937 11.527 C 44.474 11.527,48.415 11.811,48.415 13.147 C 48.415 14.038,41.616 29.989,33.306 48.594 C 24.996 67.199,17.937 83.069,17.621 83.862 C 17.177 84.971,20.593 85.303,32.480 85.303 L 47.915 85.303 54.623 70.317 L 61.331 55.331 65.323 55.331 L 69.316 55.331 68.501 70.317 L 67.686 85.303 82.258 85.303 L 96.830 85.303 96.830 79.136 C 96.830 75.745,97.165 69.002,97.575 64.151 L 98.321 55.331 102.168 55.331 C 108.698 55.331,111.969 50.926,121.694 29.031 C 129.412 11.656,130.395 8.707,129.282 6.264 L 128.003 3.458 66.855 3.458 L 5.707 3.458 4.582 6.415 M96.417 13.267 C 97.222 15.363,84.727 43.777,82.102 45.821 C 81.041 46.647,76.948 47.262,72.513 47.262 L 64.775 47.262 71.703 31.988 C 75.513 23.588,79.081 15.548,79.633 14.121 C 80.896 10.851,95.210 10.122,96.417 13.267 M138.491 17.003 C 133.820 21.447,107.634 80.440,109.218 82.952 C 111.028 85.823,171.268 86.116,174.868 83.271 C 179.174 79.867,205.626 19.111,204.068 16.201 C 202.839 13.904,201.890 13.833,172.312 13.833 L 141.823 13.833 138.491 17.003 M217.384 16.427 C 215.020 18.529,185.591 81.717,185.591 84.692 C 185.591 85.068,191.587 85.230,198.916 85.051 L 212.240 84.726 217.554 72.911 L 222.867 61.095 230.165 61.095 C 234.180 61.095,237.464 61.344,237.464 61.648 C 237.464 61.952,235.159 67.399,232.343 73.752 L 227.221 85.303 240.735 85.303 L 254.248 85.303 268.977 52.216 C 279.375 28.860,283.511 18.350,283.041 16.481 L 282.377 13.833 251.339 13.833 C 220.785 13.833,220.256 13.873,217.384 16.427 M282.770 42.946 C 275.671 58.951,268.545 75.029,266.934 78.674 L 264.006 85.303 277.536 85.299 L 291.066 85.296 305.362 53.023 L 319.658 20.749 324.670 20.749 C 331.518 20.749,331.693 20.036,316.427 54.277 C 309.135 70.629,303.170 84.316,303.170 84.692 C 303.170 85.068,309.167 85.230,316.497 85.051 L 329.824 84.726 343.983 53.026 L 358.141 21.326 362.508 20.959 C 370.001 20.329,369.846 21.169,357.310 49.164 C 350.823 63.651,344.565 77.709,343.404 80.403 L 341.292 85.303 354.796 85.293 L 368.300 85.283 383.207 51.750 C 394.880 25.493,397.855 17.803,396.915 16.313 C 395.834 14.598,390.748 14.381,345.696 14.127 L 295.677 13.846 282.770 42.946 M169.206 28.973 C 167.946 39.523,167.126 39.244,186.744 34.936 C 188.473 34.557,185.592 37.197,179.539 41.541 C 168.019 49.806,168.314 49.093,172.986 57.372 C 177.329 65.068,177.417 64.984,167.243 62.845 C 162.669 61.882,158.778 61.095,158.596 61.095 C 158.414 61.095,155.725 64.308,152.620 68.235 C 149.515 72.162,146.328 76.183,145.539 77.169 C 144.378 78.620,144.243 77.169,144.830 69.572 L 145.556 60.182 135.317 62.274 C 129.685 63.425,124.982 64.271,124.865 64.154 C 124.749 64.038,129.027 60.866,134.373 57.107 C 145.493 49.286,144.966 50.457,141.195 41.931 C 137.612 33.828,137.416 33.986,148.247 36.226 C 153.166 37.244,157.486 37.638,157.846 37.103 C 159.168 35.141,169.902 20.749,170.043 20.749 C 170.123 20.749,169.746 24.450,169.206 28.973 M254.221 21.971 C 254.637 22.643,251.990 29.905,248.340 38.110 L 241.704 53.026 234.397 53.026 C 230.378 53.026,227.089 52.713,227.089 52.331 C 227.089 49.968,239.242 24.422,241.153 22.767 C 243.748 20.520,252.977 19.958,254.221 21.971 M160.262 37.076 L 156.258 42.307 150.517 40.792 C 143.519 38.946,143.543 38.926,145.906 44.831 C 147.788 49.537,147.777 49.634,145.089 51.755 C 143.590 52.938,141.066 55.028,139.481 56.400 L 136.599 58.895 142.651 58.158 L 148.703 57.421 148.703 62.380 L 148.703 67.339 153.655 62.479 C 158.533 57.692,158.689 57.634,164.030 58.632 C 170.177 59.780,170.498 59.269,167.754 52.701 L 166.056 48.637 171.177 44.780 C 176.177 41.013,178.016 38.314,174.722 39.579 C 173.816 39.926,171.254 40.552,169.030 40.969 L 164.985 41.728 164.625 36.787 L 164.265 31.845 160.262 37.076 " stroke="none" fill="#000000" fill-rule="evenodd"></path></g></svg>