<?xml version="1.0" standalone="no"?>
<!DOCTYPE svg PUBLIC "-//W3C//DTD SVG 20010904//EN"
 "http://www.w3.org/TR/2001/REC-SVG-20010904/DTD/svg10.dtd">
<svg version="1.0" xmlns="http://www.w3.org/2000/svg"
 width="347.000000pt" height="79.000000pt" viewBox="0 0 347.000000 79.000000"
 preserveAspectRatio="xMidYMid meet">

<g transform="translate(0.000000,79.000000) scale(0.100000,-0.100000)"
fill="#000000" stroke="none">
<path d="M50 741 c-26 -50 -24 -51 185 -51 135 0 195 -3 195 -11 0 -6 -61
-147 -135 -313 -74 -165 -135 -305 -135 -309 0 -4 56 -6 126 -5 l125 3 57 128
57 127 42 0 41 0 -4 -37 c-2 -21 -5 -80 -8 -130 l-5 -93 118 0 118 0 7 53 c3
28 6 87 6 130 0 76 0 77 25 77 31 0 74 21 96 46 21 26 159 337 159 361 0 43 0
43 -542 43 -501 0 -518 -1 -528 -19z m796 -64 c6 -15 -99 -253 -123 -279 -22
-25 -169 -27 -159 -3 3 8 34 78 68 155 l62 140 73 0 c52 0 75 -4 79 -13z"/>
<path d="M1212 646 c-41 -36 -271 -550 -255 -574 9 -15 39 -17 264 -20 227 -2
257 0 283 15 23 15 49 65 137 263 137 307 136 304 120 324 -12 14 -49 16 -266
16 l-253 0 -30 -24z m262 -105 l-7 -79 93 19 c51 11 95 18 96 16 2 -2 -39 -33
-90 -70 l-94 -67 34 -63 c18 -34 34 -65 34 -68 0 -4 -33 0 -72 7 -40 8 -78 14
-84 14 -6 0 -39 -36 -74 -80 -35 -44 -64 -79 -66 -78 -1 2 2 39 7 82 4 44 7
81 5 83 -1 2 -45 -6 -97 -16 -52 -11 -95 -18 -97 -17 -1 2 41 33 93 70 l95 67
-35 70 c-39 76 -40 75 50 54 93 -23 94 -22 154 60 30 41 56 75 58 75 2 0 1
-36 -3 -79z"/>
<path d="M1396 464 c-16 -21 -31 -41 -32 -43 -2 -2 -24 2 -50 8 -25 7 -48 10
-50 8 -3 -2 3 -21 11 -41 16 -37 15 -38 -11 -59 -63 -50 -63 -48 -14 -45 44 3
45 3 48 -31 l3 -34 34 33 c32 31 37 32 85 26 l51 -7 -16 37 c-21 51 -20 56 28
93 41 32 41 33 12 27 -16 -4 -38 -9 -47 -12 -14 -4 -17 3 -20 37 l-3 43 -29
-40z"/>
<path d="M1891 643 c-20 -20 -66 -112 -150 -302 -67 -150 -121 -278 -121 -283
0 -5 48 -7 107 -6 l107 3 48 105 47 105 72 3 c83 3 81 12 18 -126 -22 -46 -39
-86 -39 -88 0 -3 50 -3 110 -2 l111 3 124 280 c69 153 125 289 125 301 0 12
-7 25 -16 28 -9 3 -128 6 -265 6 l-249 0 -29 -27z m323 -42 c3 -5 -21 -69 -53
-142 l-60 -134 -70 -3 c-39 -2 -71 1 -71 6 0 12 109 254 122 269 12 15 124 18
132 4z"/>
<path d="M2440 373 c-73 -164 -135 -304 -137 -310 -4 -10 21 -13 105 -13 l110
0 123 280 124 279 53 1 c36 0 52 -4 52 -13 0 -7 -52 -129 -115 -271 -63 -142
-115 -262 -115 -267 0 -6 46 -8 107 -7 l107 3 124 278 125 277 48 0 c26 0 50
-4 53 -8 3 -5 -49 -129 -114 -276 -66 -148 -120 -270 -120 -272 0 -2 49 -4
109 -4 l108 0 127 283 c69 156 126 290 126 298 0 38 -12 39 -446 39 l-421 0
-133 -297z"/>
</g>
</svg>
